<mxfile host="app.diagrams.net" modified="2022-11-24T08:47:13.613Z" agent="5.0 (Windows NT 10.0; Win64; x64) AppleWebKit/537.36 (KHTML, like Gecko) Chrome/107.0.0.0 Safari/537.36" etag="pkCLpMcc3YznIjZn69t7" version="20.5.3" type="github">
  <diagram name="Page-1" id="97916047-d0de-89f5-080d-49f4d83e522f">
    <mxGraphModel dx="2677" dy="1183" grid="1" gridSize="10" guides="1" tooltips="1" connect="1" arrows="1" fold="1" page="1" pageScale="1.5" pageWidth="1169" pageHeight="827" background="none" math="0" shadow="0">
      <root>
        <mxCell id="0" />
        <mxCell id="1" parent="0" />
        <mxCell id="2" value="App" style="rounded=1;fillColor=#10739E;strokeColor=none;shadow=1;gradientColor=none;fontStyle=1;fontColor=#FFFFFF;fontSize=14;" parent="1" vertex="1">
          <mxGeometry x="800" y="20" width="200" height="60" as="geometry" />
        </mxCell>
        <mxCell id="31" value="" style="edgeStyle=elbowEdgeStyle;elbow=vertical;strokeWidth=4;endArrow=block;endFill=1;fontStyle=1;strokeColor=#23445D;entryX=0.5;entryY=0;entryDx=0;entryDy=0;exitX=0.5;exitY=1;exitDx=0;exitDy=0;" parent="1" source="2" target="fwRsqw76mj4uog9GtfjT-69" edge="1">
          <mxGeometry x="190" y="-134.5" width="100" height="100" as="geometry">
            <mxPoint x="940" y="100" as="sourcePoint" />
            <mxPoint x="570" y="155.5" as="targetPoint" />
            <Array as="points">
              <mxPoint x="810" y="100" />
              <mxPoint x="790" y="200" />
            </Array>
          </mxGeometry>
        </mxCell>
        <mxCell id="32" value="" style="edgeStyle=elbowEdgeStyle;elbow=vertical;strokeWidth=4;endArrow=block;endFill=1;fontStyle=1;strokeColor=#23445D;entryX=0.5;entryY=0;entryDx=0;entryDy=0;exitX=0.5;exitY=1;exitDx=0;exitDy=0;" parent="1" source="2" target="fwRsqw76mj4uog9GtfjT-60" edge="1">
          <mxGeometry x="190" y="-134.5" width="100" height="100" as="geometry">
            <mxPoint x="940" y="100" as="sourcePoint" />
            <mxPoint x="1140" y="155.5" as="targetPoint" />
            <Array as="points">
              <mxPoint x="420" y="100" />
              <mxPoint x="340" y="200" />
              <mxPoint x="540" y="170" />
            </Array>
          </mxGeometry>
        </mxCell>
        <mxCell id="34" value="" style="edgeStyle=elbowEdgeStyle;elbow=vertical;strokeWidth=4;endArrow=block;endFill=1;fontStyle=1;strokeColor=#23445D;exitX=0.5;exitY=1;exitDx=0;exitDy=0;entryX=0.5;entryY=0;entryDx=0;entryDy=0;" parent="1" source="2" target="fwRsqw76mj4uog9GtfjT-70" edge="1">
          <mxGeometry x="150" y="-114.5" width="100" height="100" as="geometry">
            <mxPoint x="900" y="120" as="sourcePoint" />
            <mxPoint x="510" y="345.5" as="targetPoint" />
            <Array as="points">
              <mxPoint x="1370" y="100" />
              <mxPoint x="1400" y="200" />
              <mxPoint x="1190" y="170" />
              <mxPoint x="680" y="275.5" />
            </Array>
          </mxGeometry>
        </mxCell>
        <mxCell id="37" value="" style="edgeStyle=elbowEdgeStyle;elbow=vertical;strokeWidth=4;endArrow=block;endFill=1;fontStyle=1;strokeColor=#23445D;exitX=0.5;exitY=1;exitDx=0;exitDy=0;entryX=0.5;entryY=0;entryDx=0;entryDy=0;" parent="1" source="2" target="fwRsqw76mj4uog9GtfjT-72" edge="1">
          <mxGeometry x="190" y="-124.5" width="100" height="100" as="geometry">
            <mxPoint x="940" y="110" as="sourcePoint" />
            <mxPoint x="1360" y="325.5" as="targetPoint" />
            <Array as="points">
              <mxPoint x="1100" y="100" />
              <mxPoint x="1130" y="200" />
              <mxPoint x="1170" y="170" />
              <mxPoint x="1140" y="265.5" />
            </Array>
          </mxGeometry>
        </mxCell>
        <mxCell id="42" value="" style="edgeStyle=elbowEdgeStyle;elbow=vertical;strokeWidth=4;endArrow=block;endFill=1;fontStyle=1;strokeColor=#23445D;exitX=0.5;exitY=1;exitDx=0;exitDy=0;entryX=0.5;entryY=0;entryDx=0;entryDy=0;" parent="1" source="2" target="fwRsqw76mj4uog9GtfjT-67" edge="1">
          <mxGeometry x="62" y="165.5" width="100" height="100" as="geometry">
            <mxPoint x="652" y="675.5" as="sourcePoint" />
            <mxPoint x="640" y="510" as="targetPoint" />
            <Array as="points">
              <mxPoint x="1030" y="640" />
              <mxPoint x="1080" y="800" />
              <mxPoint x="660" y="480" />
              <mxPoint x="900" y="470" />
            </Array>
          </mxGeometry>
        </mxCell>
        <mxCell id="54" value="" style="edgeStyle=elbowEdgeStyle;elbow=vertical;strokeWidth=4;endArrow=block;endFill=1;fontStyle=1;strokeColor=#23445D;exitX=0.5;exitY=1;exitDx=0;exitDy=0;entryX=0.5;entryY=0;entryDx=0;entryDy=0;" parent="1" source="2" target="fwRsqw76mj4uog9GtfjT-71" edge="1">
          <mxGeometry x="187" y="-134.5" width="100" height="100" as="geometry">
            <mxPoint x="937" y="100" as="sourcePoint" />
            <mxPoint x="817" y="315.5" as="targetPoint" />
            <Array as="points">
              <mxPoint x="950" y="100" />
              <mxPoint x="980" y="200" />
              <mxPoint x="990" y="170" />
              <mxPoint x="817" y="255.5" />
            </Array>
          </mxGeometry>
        </mxCell>
        <mxCell id="55" value="" style="edgeStyle=elbowEdgeStyle;elbow=vertical;strokeWidth=4;endArrow=block;endFill=1;fontStyle=1;strokeColor=#23445D;exitX=0.5;exitY=1;exitDx=0;exitDy=0;entryX=0.5;entryY=0;entryDx=0;entryDy=0;" parent="1" source="2" target="fwRsqw76mj4uog9GtfjT-61" edge="1">
          <mxGeometry x="190" y="-134.5" width="100" height="100" as="geometry">
            <mxPoint x="940" y="100" as="sourcePoint" />
            <mxPoint x="1110" y="140" as="targetPoint" />
            <Array as="points">
              <mxPoint x="650" y="100" />
              <mxPoint x="590" y="200" />
            </Array>
          </mxGeometry>
        </mxCell>
        <mxCell id="fwRsqw76mj4uog9GtfjT-60" value="SignUpView" style="rounded=1;fillColor=#10739E;strokeColor=none;shadow=1;gradientColor=none;fontStyle=1;fontColor=#FFFFFF;fontSize=14;" vertex="1" parent="1">
          <mxGeometry x="80" y="140" width="220" height="60" as="geometry" />
        </mxCell>
        <mxCell id="fwRsqw76mj4uog9GtfjT-61" value="LoginView" style="rounded=1;fillColor=#10739E;strokeColor=none;shadow=1;gradientColor=none;fontStyle=1;fontColor=#FFFFFF;fontSize=14;" vertex="1" parent="1">
          <mxGeometry x="360" y="140" width="220" height="60" as="geometry" />
        </mxCell>
        <mxCell id="fwRsqw76mj4uog9GtfjT-62" value="DetailView" style="rounded=1;fillColor=#10739E;strokeColor=none;shadow=1;gradientColor=none;fontStyle=1;fontColor=#FFFFFF;fontSize=14;" vertex="1" parent="1">
          <mxGeometry x="360" y="680" width="220" height="60" as="geometry" />
        </mxCell>
        <mxCell id="fwRsqw76mj4uog9GtfjT-63" value="MainView" style="rounded=1;fillColor=#10739E;strokeColor=none;shadow=1;gradientColor=none;fontStyle=1;fontColor=#FFFFFF;fontSize=14;" vertex="1" parent="1">
          <mxGeometry x="80" y="360" width="220" height="60" as="geometry" />
        </mxCell>
        <mxCell id="fwRsqw76mj4uog9GtfjT-66" value="UserLikeComments" style="rounded=1;fillColor=#10739E;strokeColor=none;shadow=1;gradientColor=none;fontStyle=1;fontColor=#FFFFFF;fontSize=14;" vertex="1" parent="1">
          <mxGeometry x="640" y="360" width="220" height="60" as="geometry" />
        </mxCell>
        <mxCell id="fwRsqw76mj4uog9GtfjT-67" value="ProfileView" style="rounded=1;fillColor=#10739E;strokeColor=none;shadow=1;gradientColor=none;fontStyle=1;fontColor=#FFFFFF;fontSize=14;" vertex="1" parent="1">
          <mxGeometry x="1220" y="680" width="220" height="60" as="geometry" />
        </mxCell>
        <mxCell id="fwRsqw76mj4uog9GtfjT-70" value="SearchView" style="rounded=1;fillColor=#10739E;strokeColor=none;shadow=1;gradientColor=none;fontStyle=1;fontColor=#FFFFFF;fontSize=14;" vertex="1" parent="1">
          <mxGeometry x="1480" y="140" width="220" height="60" as="geometry" />
        </mxCell>
        <mxCell id="fwRsqw76mj4uog9GtfjT-71" value="SimilarGenreMovies" style="rounded=1;fillColor=#10739E;strokeColor=none;shadow=1;gradientColor=none;fontStyle=1;fontColor=#FFFFFF;fontSize=14;" vertex="1" parent="1">
          <mxGeometry x="920" y="140" width="220" height="60" as="geometry" />
        </mxCell>
        <mxCell id="fwRsqw76mj4uog9GtfjT-72" value="SimilarOverviewMovies" style="rounded=1;fillColor=#10739E;strokeColor=none;shadow=1;gradientColor=none;fontStyle=1;fontColor=#FFFFFF;fontSize=14;" vertex="1" parent="1">
          <mxGeometry x="1200" y="140" width="220" height="60" as="geometry" />
        </mxCell>
        <mxCell id="fwRsqw76mj4uog9GtfjT-73" value="UserAttentionMovies" style="rounded=1;fillColor=#10739E;strokeColor=none;shadow=1;gradientColor=none;fontStyle=1;fontColor=#FFFFFF;fontSize=14;" vertex="1" parent="1">
          <mxGeometry x="1200" y="360" width="220" height="60" as="geometry" />
        </mxCell>
        <mxCell id="fwRsqw76mj4uog9GtfjT-74" value="UserComments" style="rounded=1;fillColor=#10739E;strokeColor=none;shadow=1;gradientColor=none;fontStyle=1;fontColor=#FFFFFF;fontSize=14;" vertex="1" parent="1">
          <mxGeometry x="360" y="360" width="220" height="60" as="geometry" />
        </mxCell>
        <mxCell id="fwRsqw76mj4uog9GtfjT-75" value="UserLikeMovies" style="rounded=1;fillColor=#10739E;strokeColor=none;shadow=1;gradientColor=none;fontStyle=1;fontColor=#FFFFFF;fontSize=14;" vertex="1" parent="1">
          <mxGeometry x="1480" y="360" width="220" height="60" as="geometry" />
        </mxCell>
        <mxCell id="fwRsqw76mj4uog9GtfjT-69" value="SameActorMovies" style="rounded=1;fillColor=#10739E;strokeColor=none;shadow=1;gradientColor=none;fontStyle=1;fontColor=#FFFFFF;fontSize=14;" vertex="1" parent="1">
          <mxGeometry x="640" y="140" width="220" height="60" as="geometry" />
        </mxCell>
        <mxCell id="fwRsqw76mj4uog9GtfjT-77" value="RecommendView" style="rounded=1;fillColor=#10739E;strokeColor=none;shadow=1;gradientColor=none;fontStyle=1;fontColor=#FFFFFF;fontSize=14;" vertex="1" parent="1">
          <mxGeometry x="920" y="360" width="220" height="60" as="geometry" />
        </mxCell>
        <mxCell id="fwRsqw76mj4uog9GtfjT-79" value="" style="edgeStyle=elbowEdgeStyle;elbow=vertical;strokeWidth=4;endArrow=block;endFill=1;fontStyle=1;strokeColor=#23445D;exitX=0.5;exitY=1;exitDx=0;exitDy=0;entryX=0.5;entryY=0;entryDx=0;entryDy=0;" edge="1" parent="1" source="2" target="fwRsqw76mj4uog9GtfjT-63">
          <mxGeometry x="82" y="185.5" width="100" height="100" as="geometry">
            <mxPoint x="920" y="120" as="sourcePoint" />
            <mxPoint x="660" y="530" as="targetPoint" />
            <Array as="points">
              <mxPoint x="640" y="320" />
              <mxPoint x="690" y="480" />
              <mxPoint x="700" y="470" />
              <mxPoint x="920" y="490" />
            </Array>
          </mxGeometry>
        </mxCell>
        <mxCell id="fwRsqw76mj4uog9GtfjT-80" value="" style="edgeStyle=elbowEdgeStyle;elbow=vertical;strokeWidth=4;endArrow=block;endFill=1;fontStyle=1;strokeColor=#23445D;exitX=0.5;exitY=1;exitDx=0;exitDy=0;entryX=0.5;entryY=0;entryDx=0;entryDy=0;" edge="1" parent="1" source="2" target="fwRsqw76mj4uog9GtfjT-62">
          <mxGeometry x="62" y="175.5" width="100" height="100" as="geometry">
            <mxPoint x="900" y="110" as="sourcePoint" />
            <mxPoint x="640" y="520" as="targetPoint" />
            <Array as="points">
              <mxPoint x="610" y="640" />
              <mxPoint x="810" y="480" />
              <mxPoint x="830" y="470" />
            </Array>
          </mxGeometry>
        </mxCell>
        <mxCell id="fwRsqw76mj4uog9GtfjT-81" value="" style="edgeStyle=elbowEdgeStyle;elbow=vertical;strokeWidth=4;endArrow=block;endFill=1;fontStyle=1;strokeColor=#23445D;exitX=0.5;exitY=1;exitDx=0;exitDy=0;entryX=0.5;entryY=0;entryDx=0;entryDy=0;" edge="1" parent="1" source="2" target="fwRsqw76mj4uog9GtfjT-77">
          <mxGeometry x="102" y="205.5" width="100" height="100" as="geometry">
            <mxPoint x="940" y="140" as="sourcePoint" />
            <mxPoint x="680" y="550" as="targetPoint" />
            <Array as="points">
              <mxPoint x="950" y="320" />
              <mxPoint x="990" y="480" />
              <mxPoint x="970" y="470" />
            </Array>
          </mxGeometry>
        </mxCell>
        <mxCell id="fwRsqw76mj4uog9GtfjT-82" value="" style="edgeStyle=elbowEdgeStyle;elbow=vertical;strokeWidth=4;endArrow=block;endFill=1;fontStyle=1;strokeColor=#23445D;exitX=0.5;exitY=1;exitDx=0;exitDy=0;entryX=0.5;entryY=0;entryDx=0;entryDy=0;" edge="1" parent="1" source="2" target="fwRsqw76mj4uog9GtfjT-73">
          <mxGeometry x="112" y="215.5" width="100" height="100" as="geometry">
            <mxPoint x="950" y="150" as="sourcePoint" />
            <mxPoint x="690" y="560" as="targetPoint" />
            <Array as="points">
              <mxPoint x="960" y="320" />
              <mxPoint x="1070" y="480" />
              <mxPoint x="820" y="470" />
              <mxPoint x="830" y="430" />
              <mxPoint x="950" y="520" />
            </Array>
          </mxGeometry>
        </mxCell>
        <mxCell id="fwRsqw76mj4uog9GtfjT-83" value="" style="edgeStyle=elbowEdgeStyle;elbow=vertical;strokeWidth=4;endArrow=block;endFill=1;fontStyle=1;strokeColor=#23445D;exitX=0.5;exitY=1;exitDx=0;exitDy=0;entryX=0.5;entryY=0;entryDx=0;entryDy=0;" edge="1" parent="1" source="2" target="fwRsqw76mj4uog9GtfjT-75">
          <mxGeometry x="122" y="225.5" width="100" height="100" as="geometry">
            <mxPoint x="960" y="160" as="sourcePoint" />
            <mxPoint x="700" y="570" as="targetPoint" />
            <Array as="points">
              <mxPoint x="940" y="320" />
              <mxPoint x="970" y="480" />
              <mxPoint x="800" y="470" />
            </Array>
          </mxGeometry>
        </mxCell>
        <mxCell id="fwRsqw76mj4uog9GtfjT-84" value="" style="edgeStyle=elbowEdgeStyle;elbow=vertical;strokeWidth=4;endArrow=block;endFill=1;fontStyle=1;strokeColor=#23445D;exitX=0.5;exitY=1;exitDx=0;exitDy=0;entryX=0.5;entryY=0;entryDx=0;entryDy=0;" edge="1" parent="1" source="2" target="fwRsqw76mj4uog9GtfjT-66">
          <mxGeometry x="132" y="235.5" width="100" height="100" as="geometry">
            <mxPoint x="970" y="170" as="sourcePoint" />
            <mxPoint x="710" y="580" as="targetPoint" />
            <Array as="points">
              <mxPoint x="820" y="320" />
              <mxPoint x="830" y="480" />
            </Array>
          </mxGeometry>
        </mxCell>
        <mxCell id="fwRsqw76mj4uog9GtfjT-85" value="" style="edgeStyle=elbowEdgeStyle;elbow=vertical;strokeWidth=4;endArrow=block;endFill=1;fontStyle=1;strokeColor=#23445D;exitX=0.5;exitY=1;exitDx=0;exitDy=0;entryX=0.5;entryY=0;entryDx=0;entryDy=0;" edge="1" parent="1" source="2" target="fwRsqw76mj4uog9GtfjT-74">
          <mxGeometry x="142" y="245.5" width="100" height="100" as="geometry">
            <mxPoint x="980" y="180" as="sourcePoint" />
            <mxPoint x="720" y="590" as="targetPoint" />
            <Array as="points">
              <mxPoint x="610" y="320" />
              <mxPoint x="830" y="480" />
              <mxPoint x="950" y="800" />
            </Array>
          </mxGeometry>
        </mxCell>
        <mxCell id="fwRsqw76mj4uog9GtfjT-86" value="ActorList" style="rounded=1;fillColor=#10739E;strokeColor=none;shadow=1;gradientColor=none;fontStyle=1;fontColor=#FFFFFF;fontSize=14;" vertex="1" parent="1">
          <mxGeometry x="10" y="1040" width="220" height="60" as="geometry" />
        </mxCell>
        <mxCell id="fwRsqw76mj4uog9GtfjT-88" value="ActorListItem" style="rounded=1;fillColor=#10739E;strokeColor=none;shadow=1;gradientColor=none;fontStyle=1;fontColor=#FFFFFF;fontSize=14;" vertex="1" parent="1">
          <mxGeometry x="10" y="1140" width="220" height="60" as="geometry" />
        </mxCell>
        <mxCell id="fwRsqw76mj4uog9GtfjT-89" value="AttentionMovieList" style="rounded=1;fillColor=#10739E;strokeColor=none;shadow=1;gradientColor=none;fontStyle=1;fontColor=#FFFFFF;fontSize=14;" vertex="1" parent="1">
          <mxGeometry x="1760" y="800" width="220" height="60" as="geometry" />
        </mxCell>
        <mxCell id="fwRsqw76mj4uog9GtfjT-90" value="CommentForm" style="rounded=1;fillColor=#10739E;strokeColor=none;shadow=1;gradientColor=none;fontStyle=1;fontColor=#FFFFFF;fontSize=14;" vertex="1" parent="1">
          <mxGeometry x="470" y="1040" width="220" height="60" as="geometry" />
        </mxCell>
        <mxCell id="fwRsqw76mj4uog9GtfjT-91" value="CommentList" style="rounded=1;fillColor=#10739E;strokeColor=none;shadow=1;gradientColor=none;fontStyle=1;fontColor=#FFFFFF;fontSize=14;" vertex="1" parent="1">
          <mxGeometry x="700" y="1040" width="220" height="60" as="geometry" />
        </mxCell>
        <mxCell id="fwRsqw76mj4uog9GtfjT-92" value="CommentListItem" style="rounded=1;fillColor=#10739E;strokeColor=none;shadow=1;gradientColor=none;fontStyle=1;fontColor=#FFFFFF;fontSize=14;" vertex="1" parent="1">
          <mxGeometry x="700" y="1140" width="220" height="60" as="geometry" />
        </mxCell>
        <mxCell id="fwRsqw76mj4uog9GtfjT-93" value="GenreList" style="rounded=1;fillColor=#10739E;strokeColor=none;shadow=1;gradientColor=none;fontStyle=1;fontColor=#FFFFFF;fontSize=14;" vertex="1" parent="1">
          <mxGeometry x="240" y="1040" width="220" height="60" as="geometry" />
        </mxCell>
        <mxCell id="fwRsqw76mj4uog9GtfjT-94" value="LikeCommentList" style="rounded=1;fillColor=#10739E;strokeColor=none;shadow=1;gradientColor=none;fontStyle=1;fontColor=#FFFFFF;fontSize=14;" vertex="1" parent="1">
          <mxGeometry x="1520" y="800" width="220" height="60" as="geometry" />
        </mxCell>
        <mxCell id="fwRsqw76mj4uog9GtfjT-95" value="LikeMoviesList" style="rounded=1;fillColor=#10739E;strokeColor=none;shadow=1;gradientColor=none;fontStyle=1;fontColor=#FFFFFF;fontSize=14;" vertex="1" parent="1">
          <mxGeometry x="1040" y="800" width="220" height="60" as="geometry" />
        </mxCell>
        <mxCell id="fwRsqw76mj4uog9GtfjT-96" value="MovieList" style="rounded=1;fillColor=#10739E;strokeColor=none;shadow=1;gradientColor=none;fontStyle=1;fontColor=#FFFFFF;fontSize=14;" vertex="1" parent="1">
          <mxGeometry x="80" y="460" width="220" height="60" as="geometry" />
        </mxCell>
        <mxCell id="fwRsqw76mj4uog9GtfjT-97" value="MovieListItem" style="rounded=1;fillColor=#10739E;strokeColor=none;shadow=1;gradientColor=none;fontStyle=1;fontColor=#FFFFFF;fontSize=14;" vertex="1" parent="1">
          <mxGeometry x="80" y="560" width="220" height="60" as="geometry" />
        </mxCell>
        <mxCell id="fwRsqw76mj4uog9GtfjT-98" value="MovieSearching" style="rounded=1;fillColor=#10739E;strokeColor=none;shadow=1;gradientColor=none;fontStyle=1;fontColor=#FFFFFF;fontSize=14;" vertex="1" parent="1">
          <mxGeometry x="790" y="680" width="220" height="60" as="geometry" />
        </mxCell>
        <mxCell id="fwRsqw76mj4uog9GtfjT-99" value="MovieSearchingItem" style="rounded=1;fillColor=#10739E;strokeColor=none;shadow=1;gradientColor=none;fontStyle=1;fontColor=#FFFFFF;fontSize=14;" vertex="1" parent="1">
          <mxGeometry x="790" y="800" width="220" height="60" as="geometry" />
        </mxCell>
        <mxCell id="fwRsqw76mj4uog9GtfjT-100" value="ProfileCommentListItem" style="rounded=1;fillColor=#10739E;strokeColor=none;shadow=1;gradientColor=none;fontStyle=1;fontColor=#FFFFFF;fontSize=14;" vertex="1" parent="1">
          <mxGeometry x="360" y="460" width="220" height="60" as="geometry" />
        </mxCell>
        <mxCell id="fwRsqw76mj4uog9GtfjT-101" value="RecommendMovieList" style="rounded=1;fillColor=#10739E;strokeColor=none;shadow=1;gradientColor=none;fontStyle=1;fontColor=#FFFFFF;fontSize=14;" vertex="1" parent="1">
          <mxGeometry x="920" y="460" width="220" height="60" as="geometry" />
        </mxCell>
        <mxCell id="fwRsqw76mj4uog9GtfjT-102" value="SameActorMovieList" style="rounded=1;fillColor=#10739E;strokeColor=none;shadow=1;gradientColor=none;fontStyle=1;fontColor=#FFFFFF;fontSize=14;" vertex="1" parent="1">
          <mxGeometry x="1160" y="1040" width="220" height="60" as="geometry" />
        </mxCell>
        <mxCell id="fwRsqw76mj4uog9GtfjT-104" value="SimilarGenreMovieList" style="rounded=1;fillColor=#10739E;strokeColor=none;shadow=1;gradientColor=none;fontStyle=1;fontColor=#FFFFFF;fontSize=14;" vertex="1" parent="1">
          <mxGeometry x="930" y="1040" width="220" height="60" as="geometry" />
        </mxCell>
        <mxCell id="fwRsqw76mj4uog9GtfjT-105" value="SimilarOverviewMovieList" style="rounded=1;fillColor=#10739E;strokeColor=none;shadow=1;gradientColor=none;fontStyle=1;fontColor=#FFFFFF;fontSize=14;" vertex="1" parent="1">
          <mxGeometry x="1390" y="1040" width="220" height="60" as="geometry" />
        </mxCell>
        <mxCell id="fwRsqw76mj4uog9GtfjT-106" value="UserCommentList" style="rounded=1;fillColor=#10739E;strokeColor=none;shadow=1;gradientColor=none;fontStyle=1;fontColor=#FFFFFF;fontSize=14;" vertex="1" parent="1">
          <mxGeometry x="1280" y="800" width="220" height="60" as="geometry" />
        </mxCell>
        <mxCell id="fwRsqw76mj4uog9GtfjT-107" value="MovieListItem" style="rounded=1;fillColor=#10739E;strokeColor=none;shadow=1;gradientColor=none;fontStyle=1;fontColor=#FFFFFF;fontSize=14;" vertex="1" parent="1">
          <mxGeometry x="640" y="240" width="220" height="60" as="geometry" />
        </mxCell>
        <mxCell id="fwRsqw76mj4uog9GtfjT-108" value="" style="edgeStyle=elbowEdgeStyle;elbow=vertical;strokeWidth=4;endArrow=block;endFill=1;fontStyle=1;strokeColor=#23445D;exitX=0.5;exitY=1;exitDx=0;exitDy=0;entryX=0.5;entryY=0;entryDx=0;entryDy=0;" edge="1" parent="1" source="fwRsqw76mj4uog9GtfjT-69" target="fwRsqw76mj4uog9GtfjT-107">
          <mxGeometry x="40" y="85.5" width="100" height="100" as="geometry">
            <mxPoint x="750" y="320" as="sourcePoint" />
            <mxPoint x="320" y="460" as="targetPoint" />
            <Array as="points" />
          </mxGeometry>
        </mxCell>
        <mxCell id="fwRsqw76mj4uog9GtfjT-110" value="MovieListItem" style="rounded=1;fillColor=#10739E;strokeColor=none;shadow=1;gradientColor=none;fontStyle=1;fontColor=#FFFFFF;fontSize=14;" vertex="1" parent="1">
          <mxGeometry x="1200" y="240" width="220" height="60" as="geometry" />
        </mxCell>
        <mxCell id="fwRsqw76mj4uog9GtfjT-111" value="" style="edgeStyle=elbowEdgeStyle;elbow=vertical;strokeWidth=4;endArrow=block;endFill=1;fontStyle=1;strokeColor=#23445D;entryX=0.5;entryY=0;entryDx=0;entryDy=0;exitX=0.5;exitY=1;exitDx=0;exitDy=0;" edge="1" parent="1" target="fwRsqw76mj4uog9GtfjT-110" source="fwRsqw76mj4uog9GtfjT-72">
          <mxGeometry x="600" y="85.5" width="100" height="100" as="geometry">
            <mxPoint x="1310" y="330" as="sourcePoint" />
            <mxPoint x="880" y="460" as="targetPoint" />
            <Array as="points" />
          </mxGeometry>
        </mxCell>
        <mxCell id="fwRsqw76mj4uog9GtfjT-112" value="MovieListItem" style="rounded=1;fillColor=#10739E;strokeColor=none;shadow=1;gradientColor=none;fontStyle=1;fontColor=#FFFFFF;fontSize=14;" vertex="1" parent="1">
          <mxGeometry x="920" y="240" width="220" height="60" as="geometry" />
        </mxCell>
        <mxCell id="fwRsqw76mj4uog9GtfjT-113" value="" style="edgeStyle=elbowEdgeStyle;elbow=vertical;strokeWidth=4;endArrow=block;endFill=1;fontStyle=1;strokeColor=#23445D;entryX=0.5;entryY=0;entryDx=0;entryDy=0;exitX=0.5;exitY=1;exitDx=0;exitDy=0;" edge="1" parent="1" target="fwRsqw76mj4uog9GtfjT-112" source="fwRsqw76mj4uog9GtfjT-71">
          <mxGeometry x="320" y="85.5" width="100" height="100" as="geometry">
            <mxPoint x="1030" y="320" as="sourcePoint" />
            <mxPoint x="600" y="460" as="targetPoint" />
            <Array as="points" />
          </mxGeometry>
        </mxCell>
        <mxCell id="fwRsqw76mj4uog9GtfjT-114" value="MovieListItem" style="rounded=1;fillColor=#10739E;strokeColor=none;shadow=1;gradientColor=none;fontStyle=1;fontColor=#FFFFFF;fontSize=14;" vertex="1" parent="1">
          <mxGeometry x="1480" y="240" width="220" height="60" as="geometry" />
        </mxCell>
        <mxCell id="fwRsqw76mj4uog9GtfjT-115" value="" style="edgeStyle=elbowEdgeStyle;elbow=vertical;strokeWidth=4;endArrow=block;endFill=1;fontStyle=1;strokeColor=#23445D;entryX=0.5;entryY=0;entryDx=0;entryDy=0;exitX=0.5;exitY=1;exitDx=0;exitDy=0;" edge="1" parent="1" target="fwRsqw76mj4uog9GtfjT-114" source="fwRsqw76mj4uog9GtfjT-70">
          <mxGeometry x="880" y="85.5" width="100" height="100" as="geometry">
            <mxPoint x="1590" y="330" as="sourcePoint" />
            <mxPoint x="1160" y="460" as="targetPoint" />
            <Array as="points">
              <mxPoint x="1600" y="220" />
              <mxPoint x="1590" y="330" />
            </Array>
          </mxGeometry>
        </mxCell>
        <mxCell id="fwRsqw76mj4uog9GtfjT-116" value="" style="edgeStyle=elbowEdgeStyle;elbow=vertical;strokeWidth=4;endArrow=block;endFill=1;fontStyle=1;strokeColor=#23445D;exitX=0.5;exitY=1;exitDx=0;exitDy=0;entryX=0.5;entryY=0;entryDx=0;entryDy=0;" edge="1" parent="1" source="2" target="fwRsqw76mj4uog9GtfjT-98">
          <mxGeometry x="142" y="245.5" width="100" height="100" as="geometry">
            <mxPoint x="910" y="110" as="sourcePoint" />
            <mxPoint x="1320" y="850" as="targetPoint" />
            <Array as="points">
              <mxPoint x="900" y="560" />
              <mxPoint x="650" y="640" />
              <mxPoint x="810" y="800" />
              <mxPoint x="800" y="800" />
              <mxPoint x="830" y="810" />
            </Array>
          </mxGeometry>
        </mxCell>
        <mxCell id="fwRsqw76mj4uog9GtfjT-117" value="" style="edgeStyle=elbowEdgeStyle;elbow=vertical;strokeWidth=4;endArrow=block;endFill=1;fontStyle=1;strokeColor=#23445D;exitX=0.5;exitY=1;exitDx=0;exitDy=0;entryX=0.5;entryY=0;entryDx=0;entryDy=0;" edge="1" parent="1" source="fwRsqw76mj4uog9GtfjT-63" target="fwRsqw76mj4uog9GtfjT-96">
          <mxGeometry x="-525.5" y="385.5" width="100" height="100" as="geometry">
            <mxPoint x="184.5" y="600" as="sourcePoint" />
            <mxPoint x="210" y="620" as="targetPoint" />
            <Array as="points" />
          </mxGeometry>
        </mxCell>
        <mxCell id="fwRsqw76mj4uog9GtfjT-118" value="" style="edgeStyle=elbowEdgeStyle;elbow=vertical;strokeWidth=4;endArrow=block;endFill=1;fontStyle=1;strokeColor=#23445D;exitX=0.5;exitY=1;exitDx=0;exitDy=0;entryX=0.5;entryY=0;entryDx=0;entryDy=0;" edge="1" parent="1" source="fwRsqw76mj4uog9GtfjT-96" target="fwRsqw76mj4uog9GtfjT-97">
          <mxGeometry x="-345.5" y="515.5" width="100" height="100" as="geometry">
            <mxPoint x="370" y="710" as="sourcePoint" />
            <mxPoint x="190" y="720" as="targetPoint" />
            <Array as="points">
              <mxPoint x="180" y="540" />
              <mxPoint x="364.5" y="760" />
            </Array>
          </mxGeometry>
        </mxCell>
        <mxCell id="fwRsqw76mj4uog9GtfjT-119" value="" style="edgeStyle=elbowEdgeStyle;elbow=vertical;strokeWidth=4;endArrow=block;endFill=1;fontStyle=1;strokeColor=#23445D;exitX=0.5;exitY=1;exitDx=0;exitDy=0;entryX=0.5;entryY=0;entryDx=0;entryDy=0;" edge="1" parent="1" source="fwRsqw76mj4uog9GtfjT-74" target="fwRsqw76mj4uog9GtfjT-100">
          <mxGeometry x="-55.5" y="445.5" width="100" height="100" as="geometry">
            <mxPoint x="479.9999999999998" y="610" as="sourcePoint" />
            <mxPoint x="479.9999999999998" y="650" as="targetPoint" />
            <Array as="points">
              <mxPoint x="460" y="440" />
              <mxPoint x="654.5" y="690" />
            </Array>
          </mxGeometry>
        </mxCell>
        <mxCell id="fwRsqw76mj4uog9GtfjT-120" value="ProfileCommentListItem" style="rounded=1;fillColor=#10739E;strokeColor=none;shadow=1;gradientColor=none;fontStyle=1;fontColor=#FFFFFF;fontSize=14;" vertex="1" parent="1">
          <mxGeometry x="640" y="460" width="220" height="60" as="geometry" />
        </mxCell>
        <mxCell id="fwRsqw76mj4uog9GtfjT-121" value="" style="edgeStyle=elbowEdgeStyle;elbow=vertical;strokeWidth=4;endArrow=block;endFill=1;fontStyle=1;strokeColor=#23445D;entryX=0.5;entryY=0;entryDx=0;entryDy=0;exitX=0.5;exitY=1;exitDx=0;exitDy=0;" edge="1" parent="1" target="fwRsqw76mj4uog9GtfjT-120" source="fwRsqw76mj4uog9GtfjT-66">
          <mxGeometry x="224.5" y="445.5" width="100" height="100" as="geometry">
            <mxPoint x="750" y="600" as="sourcePoint" />
            <mxPoint x="759.9999999999998" y="650" as="targetPoint" />
            <Array as="points">
              <mxPoint x="740" y="440" />
              <mxPoint x="934.5" y="690" />
            </Array>
          </mxGeometry>
        </mxCell>
        <mxCell id="fwRsqw76mj4uog9GtfjT-124" value="MovieListItem" style="rounded=1;fillColor=#10739E;strokeColor=none;shadow=1;gradientColor=none;fontStyle=1;fontColor=#FFFFFF;fontSize=14;" vertex="1" parent="1">
          <mxGeometry x="1200" y="460" width="220" height="60" as="geometry" />
        </mxCell>
        <mxCell id="fwRsqw76mj4uog9GtfjT-125" value="" style="edgeStyle=elbowEdgeStyle;elbow=vertical;strokeWidth=4;endArrow=block;endFill=1;fontStyle=1;strokeColor=#23445D;entryX=0.5;entryY=0;entryDx=0;entryDy=0;exitX=0.5;exitY=1;exitDx=0;exitDy=0;" edge="1" parent="1" target="fwRsqw76mj4uog9GtfjT-124" source="fwRsqw76mj4uog9GtfjT-73">
          <mxGeometry x="600" y="345.5" width="100" height="100" as="geometry">
            <mxPoint x="1240" y="545" as="sourcePoint" />
            <mxPoint x="880" y="720" as="targetPoint" />
            <Array as="points" />
          </mxGeometry>
        </mxCell>
        <mxCell id="fwRsqw76mj4uog9GtfjT-128" value="MovieListItem" style="rounded=1;fillColor=#10739E;strokeColor=none;shadow=1;gradientColor=none;fontStyle=1;fontColor=#FFFFFF;fontSize=14;" vertex="1" parent="1">
          <mxGeometry x="1480" y="460" width="220" height="60" as="geometry" />
        </mxCell>
        <mxCell id="fwRsqw76mj4uog9GtfjT-129" value="" style="edgeStyle=elbowEdgeStyle;elbow=vertical;strokeWidth=4;endArrow=block;endFill=1;fontStyle=1;strokeColor=#23445D;entryX=0.5;entryY=0;entryDx=0;entryDy=0;exitX=0.5;exitY=1;exitDx=0;exitDy=0;" edge="1" parent="1" target="fwRsqw76mj4uog9GtfjT-128" source="fwRsqw76mj4uog9GtfjT-75">
          <mxGeometry x="340" y="105.5" width="100" height="100" as="geometry">
            <mxPoint x="1050" y="320" as="sourcePoint" />
            <mxPoint x="620" y="480" as="targetPoint" />
            <Array as="points" />
          </mxGeometry>
        </mxCell>
        <mxCell id="fwRsqw76mj4uog9GtfjT-130" value="" style="edgeStyle=elbowEdgeStyle;elbow=vertical;strokeWidth=4;endArrow=block;endFill=1;fontStyle=1;strokeColor=#23445D;entryX=0.5;entryY=0;entryDx=0;entryDy=0;exitX=0.5;exitY=1;exitDx=0;exitDy=0;" edge="1" parent="1" source="fwRsqw76mj4uog9GtfjT-77" target="fwRsqw76mj4uog9GtfjT-101">
          <mxGeometry x="504" y="445.5" width="100" height="100" as="geometry">
            <mxPoint x="1029.5" y="580" as="sourcePoint" />
            <mxPoint x="1029.5" y="620" as="targetPoint" />
            <Array as="points">
              <mxPoint x="1020" y="440" />
              <mxPoint x="1214" y="690" />
            </Array>
          </mxGeometry>
        </mxCell>
        <mxCell id="fwRsqw76mj4uog9GtfjT-131" value="MovieListItem" style="rounded=1;fillColor=#10739E;strokeColor=none;shadow=1;gradientColor=none;fontStyle=1;fontColor=#FFFFFF;fontSize=14;" vertex="1" parent="1">
          <mxGeometry x="920" y="560" width="220" height="60" as="geometry" />
        </mxCell>
        <mxCell id="fwRsqw76mj4uog9GtfjT-132" value="" style="edgeStyle=elbowEdgeStyle;elbow=vertical;strokeWidth=4;endArrow=block;endFill=1;fontStyle=1;strokeColor=#23445D;exitX=0.5;exitY=1;exitDx=0;exitDy=0;" edge="1" parent="1" source="fwRsqw76mj4uog9GtfjT-101">
          <mxGeometry x="319.5" y="445.5" width="100" height="100" as="geometry">
            <mxPoint x="1029.5" y="680" as="sourcePoint" />
            <mxPoint x="1030" y="560" as="targetPoint" />
            <Array as="points" />
          </mxGeometry>
        </mxCell>
        <mxCell id="fwRsqw76mj4uog9GtfjT-133" value="" style="edgeStyle=elbowEdgeStyle;elbow=vertical;strokeWidth=4;endArrow=block;endFill=1;fontStyle=1;strokeColor=#23445D;exitX=0.5;exitY=1;exitDx=0;exitDy=0;entryX=0.5;entryY=0;entryDx=0;entryDy=0;" edge="1" parent="1" source="fwRsqw76mj4uog9GtfjT-98" target="fwRsqw76mj4uog9GtfjT-99">
          <mxGeometry x="-335.5" y="525.5" width="100" height="100" as="geometry">
            <mxPoint x="200" y="530" as="sourcePoint" />
            <mxPoint x="200" y="570" as="targetPoint" />
            <Array as="points">
              <mxPoint x="870" y="760" />
              <mxPoint x="510" y="760" />
              <mxPoint x="374.5" y="770" />
            </Array>
          </mxGeometry>
        </mxCell>
        <mxCell id="fwRsqw76mj4uog9GtfjT-138" value="" style="edgeStyle=elbowEdgeStyle;elbow=vertical;strokeWidth=4;endArrow=block;endFill=1;fontStyle=1;strokeColor=#23445D;exitX=0.5;exitY=1;exitDx=0;exitDy=0;entryX=0.5;entryY=0;entryDx=0;entryDy=0;" edge="1" parent="1" source="fwRsqw76mj4uog9GtfjT-67" target="fwRsqw76mj4uog9GtfjT-95">
          <mxGeometry x="94" y="695.5" width="100" height="100" as="geometry">
            <mxPoint x="1329.5" y="910" as="sourcePoint" />
            <mxPoint x="1329.5" y="950" as="targetPoint" />
            <Array as="points">
              <mxPoint x="1240" y="760" />
              <mxPoint x="939.5" y="930" />
              <mxPoint x="804" y="940" />
            </Array>
          </mxGeometry>
        </mxCell>
        <mxCell id="fwRsqw76mj4uog9GtfjT-139" value="" style="edgeStyle=elbowEdgeStyle;elbow=vertical;strokeWidth=4;endArrow=block;endFill=1;fontStyle=1;strokeColor=#23445D;exitX=0.5;exitY=1;exitDx=0;exitDy=0;entryX=0.5;entryY=0;entryDx=0;entryDy=0;" edge="1" parent="1" source="fwRsqw76mj4uog9GtfjT-67" target="fwRsqw76mj4uog9GtfjT-106">
          <mxGeometry x="104" y="705.5" width="100" height="100" as="geometry">
            <mxPoint x="1340" y="750" as="sourcePoint" />
            <mxPoint x="1160" y="790" as="targetPoint" />
            <Array as="points">
              <mxPoint x="1360" y="760" />
              <mxPoint x="949.5" y="940" />
              <mxPoint x="814" y="950" />
            </Array>
          </mxGeometry>
        </mxCell>
        <mxCell id="fwRsqw76mj4uog9GtfjT-140" value="" style="edgeStyle=elbowEdgeStyle;elbow=vertical;strokeWidth=4;endArrow=block;endFill=1;fontStyle=1;strokeColor=#23445D;exitX=0.5;exitY=1;exitDx=0;exitDy=0;entryX=0.5;entryY=0;entryDx=0;entryDy=0;" edge="1" parent="1" source="fwRsqw76mj4uog9GtfjT-67" target="fwRsqw76mj4uog9GtfjT-94">
          <mxGeometry x="114" y="715.5" width="100" height="100" as="geometry">
            <mxPoint x="1350" y="760" as="sourcePoint" />
            <mxPoint x="1170" y="800" as="targetPoint" />
            <Array as="points">
              <mxPoint x="1340" y="760" />
              <mxPoint x="824" y="960" />
            </Array>
          </mxGeometry>
        </mxCell>
        <mxCell id="fwRsqw76mj4uog9GtfjT-141" value="" style="edgeStyle=elbowEdgeStyle;elbow=vertical;strokeWidth=4;endArrow=block;endFill=1;fontStyle=1;strokeColor=#23445D;exitX=0.5;exitY=1;exitDx=0;exitDy=0;entryX=0.5;entryY=0;entryDx=0;entryDy=0;" edge="1" parent="1" source="fwRsqw76mj4uog9GtfjT-67" target="fwRsqw76mj4uog9GtfjT-89">
          <mxGeometry x="124" y="725.5" width="100" height="100" as="geometry">
            <mxPoint x="1360" y="770" as="sourcePoint" />
            <mxPoint x="1180" y="810" as="targetPoint" />
            <Array as="points">
              <mxPoint x="1600" y="760" />
              <mxPoint x="969.5" y="960" />
              <mxPoint x="834" y="970" />
            </Array>
          </mxGeometry>
        </mxCell>
        <mxCell id="fwRsqw76mj4uog9GtfjT-142" value="ProfileCommentListItem" style="rounded=1;fillColor=#10739E;strokeColor=none;shadow=1;gradientColor=none;fontStyle=1;fontColor=#FFFFFF;fontSize=14;" vertex="1" parent="1">
          <mxGeometry x="1280" y="920" width="220" height="60" as="geometry" />
        </mxCell>
        <mxCell id="fwRsqw76mj4uog9GtfjT-143" value="" style="edgeStyle=elbowEdgeStyle;elbow=vertical;strokeWidth=4;endArrow=block;endFill=1;fontStyle=1;strokeColor=#23445D;entryX=0.5;entryY=0;entryDx=0;entryDy=0;exitX=0.5;exitY=1;exitDx=0;exitDy=0;" edge="1" parent="1" target="fwRsqw76mj4uog9GtfjT-142" source="fwRsqw76mj4uog9GtfjT-106">
          <mxGeometry x="734.5" y="905.5" width="100" height="100" as="geometry">
            <mxPoint x="1260" y="880" as="sourcePoint" />
            <mxPoint x="1269.9999999999998" y="1110" as="targetPoint" />
            <Array as="points">
              <mxPoint x="1370" y="890" />
              <mxPoint x="1444.5" y="1150" />
            </Array>
          </mxGeometry>
        </mxCell>
        <mxCell id="fwRsqw76mj4uog9GtfjT-144" value="ProfileCommentListItem" style="rounded=1;fillColor=#10739E;strokeColor=none;shadow=1;gradientColor=none;fontStyle=1;fontColor=#FFFFFF;fontSize=14;" vertex="1" parent="1">
          <mxGeometry x="1520" y="920" width="220" height="60" as="geometry" />
        </mxCell>
        <mxCell id="fwRsqw76mj4uog9GtfjT-145" value="" style="edgeStyle=elbowEdgeStyle;elbow=vertical;strokeWidth=4;endArrow=block;endFill=1;fontStyle=1;strokeColor=#23445D;entryX=0.5;entryY=0;entryDx=0;entryDy=0;exitX=0.5;exitY=1;exitDx=0;exitDy=0;" edge="1" parent="1" target="fwRsqw76mj4uog9GtfjT-144" source="fwRsqw76mj4uog9GtfjT-94">
          <mxGeometry x="1104.5" y="905.5" width="100" height="100" as="geometry">
            <mxPoint x="1630" y="880" as="sourcePoint" />
            <mxPoint x="1639.9999999999998" y="1110" as="targetPoint" />
            <Array as="points">
              <mxPoint x="1620" y="900" />
              <mxPoint x="1814.5" y="1150" />
            </Array>
          </mxGeometry>
        </mxCell>
        <mxCell id="fwRsqw76mj4uog9GtfjT-146" value="MovieListItem" style="rounded=1;fillColor=#10739E;strokeColor=none;shadow=1;gradientColor=none;fontStyle=1;fontColor=#FFFFFF;fontSize=14;" vertex="1" parent="1">
          <mxGeometry x="1040" y="920" width="220" height="60" as="geometry" />
        </mxCell>
        <mxCell id="fwRsqw76mj4uog9GtfjT-147" value="" style="edgeStyle=elbowEdgeStyle;elbow=vertical;strokeWidth=4;endArrow=block;endFill=1;fontStyle=1;strokeColor=#23445D;exitX=0.5;exitY=1;exitDx=0;exitDy=0;" edge="1" parent="1" source="fwRsqw76mj4uog9GtfjT-95">
          <mxGeometry x="439.5" y="805.5" width="100" height="100" as="geometry">
            <mxPoint x="1150" y="880" as="sourcePoint" />
            <mxPoint x="1150" y="920" as="targetPoint" />
            <Array as="points" />
          </mxGeometry>
        </mxCell>
        <mxCell id="fwRsqw76mj4uog9GtfjT-148" value="MovieListItem" style="rounded=1;fillColor=#10739E;strokeColor=none;shadow=1;gradientColor=none;fontStyle=1;fontColor=#FFFFFF;fontSize=14;" vertex="1" parent="1">
          <mxGeometry x="1760" y="920" width="220" height="60" as="geometry" />
        </mxCell>
        <mxCell id="fwRsqw76mj4uog9GtfjT-149" value="" style="edgeStyle=elbowEdgeStyle;elbow=vertical;strokeWidth=4;endArrow=block;endFill=1;fontStyle=1;strokeColor=#23445D;exitX=0.5;exitY=1;exitDx=0;exitDy=0;" edge="1" parent="1" source="fwRsqw76mj4uog9GtfjT-89">
          <mxGeometry x="1159.5" y="805.5" width="100" height="100" as="geometry">
            <mxPoint x="1870" y="880" as="sourcePoint" />
            <mxPoint x="1870" y="920" as="targetPoint" />
            <Array as="points" />
          </mxGeometry>
        </mxCell>
        <mxCell id="fwRsqw76mj4uog9GtfjT-152" value="" style="edgeStyle=elbowEdgeStyle;elbow=vertical;strokeWidth=4;endArrow=block;endFill=1;fontStyle=1;strokeColor=#23445D;exitX=0.5;exitY=1;exitDx=0;exitDy=0;entryX=0.5;entryY=0;entryDx=0;entryDy=0;" edge="1" parent="1" source="fwRsqw76mj4uog9GtfjT-62" target="fwRsqw76mj4uog9GtfjT-105">
          <mxGeometry x="-418" y="745.5" width="100" height="100" as="geometry">
            <mxPoint x="420" y="650" as="sourcePoint" />
            <mxPoint x="-10" y="1250" as="targetPoint" />
            <Array as="points">
              <mxPoint x="1290" y="1000" />
              <mxPoint x="470" y="900" />
              <mxPoint x="130" y="1210" />
              <mxPoint x="330" y="1050" />
              <mxPoint x="350" y="1040" />
            </Array>
          </mxGeometry>
        </mxCell>
        <mxCell id="fwRsqw76mj4uog9GtfjT-153" value="" style="edgeStyle=elbowEdgeStyle;elbow=vertical;strokeWidth=4;endArrow=block;endFill=1;fontStyle=1;strokeColor=#23445D;exitX=0.5;exitY=1;exitDx=0;exitDy=0;entryX=0.5;entryY=0;entryDx=0;entryDy=0;" edge="1" parent="1" source="fwRsqw76mj4uog9GtfjT-62" target="fwRsqw76mj4uog9GtfjT-102">
          <mxGeometry x="-408" y="755.5" width="100" height="100" as="geometry">
            <mxPoint x="480" y="750" as="sourcePoint" />
            <mxPoint x="1510" y="1050" as="targetPoint" />
            <Array as="points">
              <mxPoint x="1140" y="1000" />
              <mxPoint x="1300" y="1010" />
              <mxPoint x="480" y="910" />
              <mxPoint x="140" y="1220" />
              <mxPoint x="340" y="1060" />
              <mxPoint x="360" y="1050" />
            </Array>
          </mxGeometry>
        </mxCell>
        <mxCell id="fwRsqw76mj4uog9GtfjT-154" value="" style="edgeStyle=elbowEdgeStyle;elbow=vertical;strokeWidth=4;endArrow=block;endFill=1;fontStyle=1;strokeColor=#23445D;exitX=0.5;exitY=1;exitDx=0;exitDy=0;entryX=0.5;entryY=0;entryDx=0;entryDy=0;" edge="1" parent="1" source="fwRsqw76mj4uog9GtfjT-62" target="fwRsqw76mj4uog9GtfjT-104">
          <mxGeometry x="-398" y="765.5" width="100" height="100" as="geometry">
            <mxPoint x="490" y="760" as="sourcePoint" />
            <mxPoint x="1520" y="1060" as="targetPoint" />
            <Array as="points">
              <mxPoint x="900" y="1000" />
              <mxPoint x="1310" y="1020" />
              <mxPoint x="490" y="920" />
              <mxPoint x="150" y="1230" />
              <mxPoint x="350" y="1070" />
              <mxPoint x="370" y="1060" />
            </Array>
          </mxGeometry>
        </mxCell>
        <mxCell id="fwRsqw76mj4uog9GtfjT-155" value="" style="edgeStyle=elbowEdgeStyle;elbow=vertical;strokeWidth=4;endArrow=block;endFill=1;fontStyle=1;strokeColor=#23445D;exitX=0.5;exitY=1;exitDx=0;exitDy=0;" edge="1" parent="1" source="fwRsqw76mj4uog9GtfjT-86">
          <mxGeometry x="-600.5" y="1065.5" width="100" height="100" as="geometry">
            <mxPoint x="110" y="1120" as="sourcePoint" />
            <mxPoint x="120" y="1140" as="targetPoint" />
            <Array as="points" />
          </mxGeometry>
        </mxCell>
        <mxCell id="fwRsqw76mj4uog9GtfjT-156" value="" style="edgeStyle=elbowEdgeStyle;elbow=vertical;strokeWidth=4;endArrow=block;endFill=1;fontStyle=1;strokeColor=#23445D;exitX=0.5;exitY=1;exitDx=0;exitDy=0;" edge="1" parent="1">
          <mxGeometry x="89" y="1065.5" width="100" height="100" as="geometry">
            <mxPoint x="809.5" y="1100" as="sourcePoint" />
            <mxPoint x="809.5" y="1140" as="targetPoint" />
            <Array as="points">
              <mxPoint x="1269.5" y="1130" />
            </Array>
          </mxGeometry>
        </mxCell>
        <mxCell id="fwRsqw76mj4uog9GtfjT-157" value="MovieListItem" style="rounded=1;fillColor=#10739E;strokeColor=none;shadow=1;gradientColor=none;fontStyle=1;fontColor=#FFFFFF;fontSize=14;" vertex="1" parent="1">
          <mxGeometry x="930" y="1140" width="220" height="60" as="geometry" />
        </mxCell>
        <mxCell id="fwRsqw76mj4uog9GtfjT-158" value="" style="edgeStyle=elbowEdgeStyle;elbow=vertical;strokeWidth=4;endArrow=block;endFill=1;fontStyle=1;strokeColor=#23445D;exitX=0.5;exitY=1;exitDx=0;exitDy=0;" edge="1" parent="1">
          <mxGeometry x="319.5" y="1065.5" width="100" height="100" as="geometry">
            <mxPoint x="1040" y="1100" as="sourcePoint" />
            <mxPoint x="1040" y="1140" as="targetPoint" />
            <Array as="points">
              <mxPoint x="1500" y="1130" />
            </Array>
          </mxGeometry>
        </mxCell>
        <mxCell id="fwRsqw76mj4uog9GtfjT-159" value="MovieListItem" style="rounded=1;fillColor=#10739E;strokeColor=none;shadow=1;gradientColor=none;fontStyle=1;fontColor=#FFFFFF;fontSize=14;" vertex="1" parent="1">
          <mxGeometry x="1160" y="1140" width="220" height="60" as="geometry" />
        </mxCell>
        <mxCell id="fwRsqw76mj4uog9GtfjT-160" value="" style="edgeStyle=elbowEdgeStyle;elbow=vertical;strokeWidth=4;endArrow=block;endFill=1;fontStyle=1;strokeColor=#23445D;exitX=0.5;exitY=1;exitDx=0;exitDy=0;" edge="1" parent="1">
          <mxGeometry x="549.5" y="1065.5" width="100" height="100" as="geometry">
            <mxPoint x="1270" y="1100" as="sourcePoint" />
            <mxPoint x="1270" y="1140" as="targetPoint" />
            <Array as="points">
              <mxPoint x="1730" y="1130" />
            </Array>
          </mxGeometry>
        </mxCell>
        <mxCell id="fwRsqw76mj4uog9GtfjT-161" value="MovieListItem" style="rounded=1;fillColor=#10739E;strokeColor=none;shadow=1;gradientColor=none;fontStyle=1;fontColor=#FFFFFF;fontSize=14;" vertex="1" parent="1">
          <mxGeometry x="1390" y="1140" width="220" height="60" as="geometry" />
        </mxCell>
        <mxCell id="fwRsqw76mj4uog9GtfjT-162" value="" style="edgeStyle=elbowEdgeStyle;elbow=vertical;strokeWidth=4;endArrow=block;endFill=1;fontStyle=1;strokeColor=#23445D;exitX=0.5;exitY=1;exitDx=0;exitDy=0;" edge="1" parent="1">
          <mxGeometry x="779.5" y="1065.5" width="100" height="100" as="geometry">
            <mxPoint x="1500" y="1100" as="sourcePoint" />
            <mxPoint x="1500" y="1140" as="targetPoint" />
            <Array as="points">
              <mxPoint x="1960" y="1130" />
            </Array>
          </mxGeometry>
        </mxCell>
        <mxCell id="fwRsqw76mj4uog9GtfjT-163" value="" style="edgeStyle=elbowEdgeStyle;elbow=vertical;strokeWidth=4;endArrow=block;endFill=1;fontStyle=1;strokeColor=#23445D;exitX=0.5;exitY=1;exitDx=0;exitDy=0;entryX=0.5;entryY=0;entryDx=0;entryDy=0;" edge="1" parent="1" source="fwRsqw76mj4uog9GtfjT-62" target="fwRsqw76mj4uog9GtfjT-91">
          <mxGeometry x="-388" y="775.5" width="100" height="100" as="geometry">
            <mxPoint x="480" y="750" as="sourcePoint" />
            <mxPoint x="1050" y="1050" as="targetPoint" />
            <Array as="points">
              <mxPoint x="670" y="1000" />
              <mxPoint x="910" y="1010" />
              <mxPoint x="1320" y="1030" />
              <mxPoint x="500" y="930" />
              <mxPoint x="160" y="1240" />
              <mxPoint x="360" y="1080" />
              <mxPoint x="380" y="1070" />
            </Array>
          </mxGeometry>
        </mxCell>
        <mxCell id="fwRsqw76mj4uog9GtfjT-164" value="" style="edgeStyle=elbowEdgeStyle;elbow=vertical;strokeWidth=4;endArrow=block;endFill=1;fontStyle=1;strokeColor=#23445D;exitX=0.5;exitY=1;exitDx=0;exitDy=0;entryX=0.5;entryY=0;entryDx=0;entryDy=0;" edge="1" parent="1" source="fwRsqw76mj4uog9GtfjT-62" target="fwRsqw76mj4uog9GtfjT-90">
          <mxGeometry x="-378" y="785.5" width="100" height="100" as="geometry">
            <mxPoint x="490" y="760" as="sourcePoint" />
            <mxPoint x="1060" y="1060" as="targetPoint" />
            <Array as="points">
              <mxPoint x="510" y="1000" />
              <mxPoint x="1330" y="1040" />
              <mxPoint x="510" y="940" />
              <mxPoint x="170" y="1250" />
              <mxPoint x="370" y="1090" />
              <mxPoint x="390" y="1080" />
            </Array>
          </mxGeometry>
        </mxCell>
        <mxCell id="fwRsqw76mj4uog9GtfjT-165" value="" style="edgeStyle=elbowEdgeStyle;elbow=vertical;strokeWidth=4;endArrow=block;endFill=1;fontStyle=1;strokeColor=#23445D;exitX=0.5;exitY=1;exitDx=0;exitDy=0;entryX=0.5;entryY=0;entryDx=0;entryDy=0;" edge="1" parent="1" source="fwRsqw76mj4uog9GtfjT-62" target="fwRsqw76mj4uog9GtfjT-93">
          <mxGeometry x="-368" y="795.5" width="100" height="100" as="geometry">
            <mxPoint x="500" y="770" as="sourcePoint" />
            <mxPoint x="1070" y="1070" as="targetPoint" />
            <Array as="points">
              <mxPoint x="430" y="1000" />
              <mxPoint x="1340" y="1050" />
              <mxPoint x="520" y="950" />
              <mxPoint x="180" y="1260" />
              <mxPoint x="380" y="1100" />
              <mxPoint x="400" y="1090" />
            </Array>
          </mxGeometry>
        </mxCell>
        <mxCell id="fwRsqw76mj4uog9GtfjT-166" value="" style="edgeStyle=elbowEdgeStyle;elbow=vertical;strokeWidth=4;endArrow=block;endFill=1;fontStyle=1;strokeColor=#23445D;exitX=0.5;exitY=1;exitDx=0;exitDy=0;entryX=0.5;entryY=0;entryDx=0;entryDy=0;" edge="1" parent="1" source="fwRsqw76mj4uog9GtfjT-62" target="fwRsqw76mj4uog9GtfjT-86">
          <mxGeometry x="-358" y="805.5" width="100" height="100" as="geometry">
            <mxPoint x="510" y="780" as="sourcePoint" />
            <mxPoint x="1080" y="1080" as="targetPoint" />
            <Array as="points">
              <mxPoint x="320" y="1000" />
              <mxPoint x="1350" y="1060" />
              <mxPoint x="530" y="960" />
              <mxPoint x="190" y="1270" />
              <mxPoint x="390" y="1110" />
              <mxPoint x="410" y="1100" />
            </Array>
          </mxGeometry>
        </mxCell>
      </root>
    </mxGraphModel>
  </diagram>
</mxfile>
